<?xml version="1.0" encoding="UTF-8" standalone="no"?>
<svg
   viewBox="0 0 24 24"
   version="1.1"
   id="svg1"
   sodipodi:docname="eye-settings-outline.svg"
   inkscape:version="1.3 (0e150ed6c4, 2023-07-21)"
   xmlns:inkscape="http://www.inkscape.org/namespaces/inkscape"
   xmlns:sodipodi="http://sodipodi.sourceforge.net/DTD/sodipodi-0.dtd"
   xmlns="http://www.w3.org/2000/svg"
   xmlns:svg="http://www.w3.org/2000/svg">
  <defs
     id="defs1" />
  <sodipodi:namedview
     id="namedview1"
     pagecolor="#ffffff"
     bordercolor="#000000"
     borderopacity="0.25"
     inkscape:showpageshadow="2"
     inkscape:pageopacity="0.0"
     inkscape:pagecheckerboard="0"
     inkscape:deskcolor="#d1d1d1"
     inkscape:zoom="75.208333"
     inkscape:cx="12"
     inkscape:cy="12"
     inkscape:window-width="3840"
     inkscape:window-height="2055"
     inkscape:window-x="0"
     inkscape:window-y="0"
     inkscape:window-maximized="1"
     inkscape:current-layer="svg1" />
  <path
     d="M12,9A3,3 0 0,1 15,12A3,3 0 0,1 12,15A3,3 0 0,1 9,12A3,3 0 0,1 12,9M12,4.5C16.86,4.5 21.22,7.5 23,12C20.61,18.08 13.75,21.06 7.67,18.67C4.62,17.47 2.2,15.06 1,12C2.78,7.5 7.14,4.5 12,4.5M3.18,12C5.56,16.87 11.45,18.89 16.32,16.5C18.28,15.54 19.86,13.96 20.82,12C18.44,7.13 12.55,5.11 7.68,7.5C5.72,8.46 4.14,10.04 3.18,12M9,22H7V24H9V22M13,22H11V24H13V22M17,22H15V24H17V22Z"
     id="path1"
     style="fill:#4d4d4d" />
</svg>
