<?xml version="1.0" encoding="UTF-8" standalone="no"?>
<svg
   version="1.1"
   width="24"
   height="24"
   viewBox="0 0 24 24"
   id="svg4"
   sodipodi:docname="focus-field.svg"
   inkscape:version="1.1.1 (3bf5ae0d25, 2021-09-20, custom)"
   xmlns:inkscape="http://www.inkscape.org/namespaces/inkscape"
   xmlns:sodipodi="http://sodipodi.sourceforge.net/DTD/sodipodi-0.dtd"
   xmlns="http://www.w3.org/2000/svg"
   xmlns:svg="http://www.w3.org/2000/svg">
  <defs
     id="defs8" />
  <sodipodi:namedview
     id="namedview6"
     pagecolor="#ffffff"
     bordercolor="#666666"
     borderopacity="1.0"
     inkscape:pageshadow="2"
     inkscape:pageopacity="0.0"
     inkscape:pagecheckerboard="0"
     showgrid="false"
     inkscape:zoom="26.25"
     inkscape:cx="12"
     inkscape:cy="11.980952"
     inkscape:window-width="3840"
     inkscape:window-height="2069"
     inkscape:window-x="0"
     inkscape:window-y="0"
     inkscape:window-maximized="1"
     inkscape:current-layer="svg4" />
  <path
     d="M19 19H15V21H19C20.1 21 21 20.1 21 19V15H19M19 3H15V5H19V9H21V5C21 3.9 20.1 3 19 3M5 5H9V3H5C3.9 3 3 3.9 3 5V9H5M5 15H3V19C3 20.1 3.9 21 5 21H9V19H5V15M7 11H9V13H7V11M11 11H13V13H11V11M15 11H17V13H15V11M7 7H9V9H7V7M11 7H13V9H11V7M15 7H17V9H15V7M7 15H9V17H7V15M11 15H13V17H11V15M15 15H17V17H15V15Z"
     id="path2"
     style="fill:#4d4d4d" />
</svg>
