<?xml version="1.0" encoding="UTF-8" standalone="no"?>
<svg
   viewBox="0 0 24 24"
   version="1.1"
   id="svg1"
   sodipodi:docname="order-bool-descending-variant.svg"
   inkscape:version="1.3.2 (091e20ef0f, 2023-11-25, custom)"
   xmlns:inkscape="http://www.inkscape.org/namespaces/inkscape"
   xmlns:sodipodi="http://sodipodi.sourceforge.net/DTD/sodipodi-0.dtd"
   xmlns="http://www.w3.org/2000/svg"
   xmlns:svg="http://www.w3.org/2000/svg">
  <defs
     id="defs1" />
  <sodipodi:namedview
     id="namedview1"
     pagecolor="#ffffff"
     bordercolor="#000000"
     borderopacity="0.25"
     inkscape:showpageshadow="2"
     inkscape:pageopacity="0.0"
     inkscape:pagecheckerboard="0"
     inkscape:deskcolor="#d1d1d1"
     inkscape:zoom="75"
     inkscape:cx="12"
     inkscape:cy="12"
     inkscape:window-width="3840"
     inkscape:window-height="2050"
     inkscape:window-x="0"
     inkscape:window-y="0"
     inkscape:window-maximized="1"
     inkscape:current-layer="svg1" />
  <path
     d="M4 3C2.89 3 2 3.89 2 5V9C2 10.11 2.89 11 4 11H8C9.11 11 10 10.11 10 9V5C10 3.89 9.11 3 8 3M8.2 4.5L9.26 5.55L5.27 9.5L2.74 6.95L3.81 5.9L5.28 7.39M4 13C2.89 13 2 13.89 2 15V19C2 20.11 2.89 21 4 21H8C9.11 21 10 20.11 10 19V15C10 13.89 9.11 13 8 13M4 15H8V19H4M12 5H22V7H12M12 19V17H22V19M12 11H22V13H12Z"
     id="path1"
     style="fill:#4d4d4d" />
</svg>
