<?xml version="1.0" encoding="UTF-8" standalone="no"?>
<svg
   version="1.1"
   width="24"
   height="24"
   viewBox="0 0 24 24"
   id="svg4"
   sodipodi:docname="file-search-outline.svg"
   inkscape:version="1.1.1 (3bf5ae0d25, 2021-09-20, custom)"
   xmlns:inkscape="http://www.inkscape.org/namespaces/inkscape"
   xmlns:sodipodi="http://sodipodi.sourceforge.net/DTD/sodipodi-0.dtd"
   xmlns="http://www.w3.org/2000/svg"
   xmlns:svg="http://www.w3.org/2000/svg">
  <defs
     id="defs8" />
  <sodipodi:namedview
     id="namedview6"
     pagecolor="#ffffff"
     bordercolor="#666666"
     borderopacity="1.0"
     inkscape:pageshadow="2"
     inkscape:pageopacity="0.0"
     inkscape:pagecheckerboard="0"
     showgrid="false"
     inkscape:zoom="26.25"
     inkscape:cx="12"
     inkscape:cy="11.980952"
     inkscape:window-width="3840"
     inkscape:window-height="2069"
     inkscape:window-x="0"
     inkscape:window-y="0"
     inkscape:window-maximized="1"
     inkscape:current-layer="svg4" />
  <path
     d="M14,2H6C4.9,2 4,2.9 4,4V20C4,21.1 4.9,22 6,22H13C12.59,21.75 12.2,21.44 11.86,21.1C11.53,20.77 11.25,20.4 11,20H6V4H13V9H18V10.18C18.71,10.34 19.39,10.61 20,11V8L14,2M20.31,18.9C21.64,16.79 21,14 18.91,12.68C16.8,11.35 14,12 12.69,14.08C11.35,16.19 12,18.97 14.09,20.3C15.55,21.23 17.41,21.23 18.88,20.32L22,23.39L23.39,22L20.31,18.9M16.5,19C15.12,19 14,17.88 14,16.5C14,15.12 15.12,14 16.5,14C17.88,14 19,15.12 19,16.5C19,17.88 17.88,19 16.5,19Z"
     id="path2"
     style="fill:#e6e6e6" />
</svg>
